<?xml version="1.0" standalone="no"?>
<!DOCTYPE svg PUBLIC "-//W3C//DTD SVG 1.1//EN" "http://www.w3.org/Graphics/SVG/1.1/DTD/svg11.dtd" >
<svg xmlns="http://www.w3.org/2000/svg">
<metadata></metadata>
<defs>
<font id="saiyan_sansregular" horiz-adv-x="1024" >
<font-face units-per-em="2048" ascent="1536" descent="-512" />
<missing-glyph horiz-adv-x="500" />
<glyph horiz-adv-x="0" />
<glyph unicode="&#xd;" />
<glyph unicode=" " />
<glyph unicode="A" horiz-adv-x="851" d="M0 29l211 1411l375 -27l266 -1411h-373l-26 399l-80 -28v-371zM373 694h80l-54 213z" />
<glyph unicode="B" horiz-adv-x="839" d="M0 854l25 522q158 59 298 60h3q138 0 246 -45q110 -45 178 -127t84 -186q4 -26 4 -53q0 -81 -35 -171q-47 -119 -172 -236q88 -59 127 -150q33 -76 33 -153q1 -15 -1 -29q-8 -91 -62 -167t-153 -107q-41 -10 -115 -12q-24 -1 -49 -1q-49 0 -98 3q-86 2 -184 10l-51 813z M340 825q31 10 45 46t14 78t-14 82t-45 59v-265zM367 410l26 -185q20 8 32.5 31t12.5 50.5t-16 55t-55 48.5z" />
<glyph unicode="C" horiz-adv-x="1150" d="M0 729q0 147 46 275.5t127 223.5t190.5 150.5t236.5 55.5q88 0 171 -29t154.5 -80t129 -123t96.5 -160l-365 -106q-23 61 -75 83.5t-111 22.5q-39 0 -76 -19t-66.5 -53t-48 -82t-18.5 -106q0 -51 18.5 -98t48 -84t66.5 -59.5t76 -22.5t78 17.5t80 35.5l393 -157 q-39 -88 -96.5 -165t-129 -133.5t-154.5 -88t-171 -31.5q-127 0 -236.5 59.5t-190.5 159.5t-127 233.5t-46 280.5z" />
<glyph unicode="D" horiz-adv-x="616" d="M0 1434q131 -4 238.5 -59.5t185.5 -143.5t125 -202q47 -115 61 -237q5 -47 4 -94q0 -75 -12 -151q-22 -123 -83.5 -231.5t-164 -192.5t-250.5 -127v811l-77 24zM289 518q49 10 76.5 49t30.5 83v9q0 39 -24 73q-26 38 -83 48v-262z" />
<glyph unicode="E" horiz-adv-x="780" d="M0 913l104 467l676 52l-51 -676l-287 51v-156l156 27l-27 -156l-129 -53l-26 -102l260 75l-27 -336l-622 -104l51 858z" />
<glyph unicode="F" horiz-adv-x="784" d="M0 913l106 496l678 27l-51 -627h-289l25 -104l158 53v-262l-158 -54l29 -417l-447 -27l27 862z" />
<glyph unicode="G" horiz-adv-x="1200" d="M0 729q0 145 46 273t127 223.5t189.5 151t235.5 55.5q88 0 170 -28t153.5 -79t129 -124t96.5 -161l-365 -102q-10 29 -27.5 48.5t-39 31.5t-45 17t-43.5 5q-49 0 -91 -18t-75 -52t-51.5 -82t-18.5 -108q0 -49 18.5 -95t51.5 -83t75 -59.5t91 -22.5q41 0 89 33t66 74 l-260 24v260h287h362q23 -59 26 -101t3 -81v-131q-20 -127 -75.5 -236.5t-136.5 -189.5t-181 -126t-209 -46q-127 0 -235.5 59.5t-189.5 158.5t-127 231.5t-46 279.5z" />
<glyph unicode="H" horiz-adv-x="942" d="M0 1436l469 -76l-25 -680l129 25l-24 731h366l27 -1411l-289 -25l-53 338l-131 -25l-25 -288h-393z" />
<glyph unicode="I" horiz-adv-x="458" d="M0 1407l459 27l-80 -1432h-324z" />
<glyph unicode="J" horiz-adv-x="1013" d="M10 516q-10 59 -10 119q0 70 14 141l367 -108q-10 -37 -12 -94v-13q0 -50 15 -94q17 -49 60 -77q26 -17 64 -17q27 0 59 8q53 12 78 75.5t30 157.5q2 28 2 58q0 69 -9 146q-11 112 -28 222.5t-38 208.5t-35 166q78 6 152 12q63 4 131 9.5t119 5.5q18 -139 33 -307 q11 -116 11 -232q0 -52 -2 -105q-7 -169 -47 -327t-128 -276q-100 -119 -207 -160q-71 -27 -140 -27q-34 0 -67 6q-100 21 -186 93.5t-144.5 177t-81.5 231.5z" />
<glyph unicode="K" horiz-adv-x="995" d="M0 1442h420l-27 -500l209 447l393 -80l-446 -707l420 -366l-314 -236l-288 340v-313l-314 -27z" />
<glyph unicode="L" horiz-adv-x="704" d="M0 0l27 1436h417l-79 -916l340 80l-54 -524z" />
<glyph unicode="M" horiz-adv-x="1253" d="M0 -4l109 1411l292 27l211 -560l240 533l293 27l108 -1438l-479 27l29 401l-164 -348l-184 348v-401z" />
<glyph unicode="N" horiz-adv-x="907" d="M0 -2l106 1440h295l158 -400v400h322l26 -1440h-321l-107 215v-215h-479z" />
<glyph unicode="O" horiz-adv-x="1019" d="M0 725q0 104 43 194.5t115.5 156t168 103.5t201.5 38q104 0 194.5 -38t156 -103.5t103.5 -156t38 -194.5q0 -106 -38 -201.5t-103.5 -168t-155.5 -115.5t-195 -43q-106 0 -201.5 43t-168 115.5t-115.5 167.5t-43 202zM315 795l144 -107l-74 -176l143 106l140 -106 l-33 176l102 107h-139l-70 139l-36 -139h-177z" />
<glyph unicode="P" horiz-adv-x="772" d="M0 856l27 528q141 52 267 52q17 0 34 -1q141 -8 244 -68q104 -59 157 -163q42 -82 42 -180q0 -26 -3 -52q-14 -128 -108.5 -273.5t-286.5 -290.5l53 -402h-293l-53 823zM346 829q31 10 45.5 45t14.5 78t-14.5 83t-45.5 61v-267z" />
<glyph unicode="Q" horiz-adv-x="1265" d="M0 717q0 147 47 277t128 226.5t191.5 151.5t239.5 55t240.5 -55t192.5 -151.5t127 -226.5t46 -277q0 -80 -6 -159t-43 -159l103 -104l-211 -291l-103 102q-61 -57 -152 -79.5t-194 -22.5q-129 0 -239.5 55.5t-191.5 151.5t-128 226t-47 280zM395 768q0 -49 18.5 -96 t51.5 -84t76 -59.5t92 -22.5q41 0 79 22.5t67.5 59.5t47 84t17.5 96q0 59 -17.5 108.5t-47 84t-67.5 53t-79 18.5q-49 0 -92 -18.5t-76 -53t-51.5 -84t-18.5 -108.5z" />
<glyph unicode="R" horiz-adv-x="813" d="M0 887v495q137 51 259 51q6 -1 12 -1q128 -2 225.5 -48.5t157.5 -130.5q61 -83 71 -191q2 -19 2 -39q0 -91 -39 -195q-47 -126 -166 -257l291 -364l-264 -211l-234 420l27 -391h-313l24 837zM315 809q29 0 47.5 29.5t20.5 68.5v9q1 35 -13 69q-16 39 -55 59v-235z" />
<glyph unicode="S" horiz-adv-x="884" d="M14 1010q18 94 43 164.5t67 121t104.5 83.5t158.5 53q35 5 68 5q95 0 175 -39q108 -52 172 -154t80 -240q4 -33 3 -67q0 -108 -37 -224q-29 10 -83 18t-110 17q-66 8 -137 16q25 51 31 92q1 7 1 14q0 28 -14 54q-16 34 -73 45q-17 2 -33 2q-44 -1 -75 -17 q-42 -22 -57 -59q-9 -23 -10 -49q0 -16 4 -32q9 -44 46 -75q37 -33 96.5 -64.5t157.5 -64.5t158 -106q60 -74 72 -160q3 -20 2 -39q0 -65 -32 -128q-42 -81 -149 -128q-71 -33 -147 -38q-17 -1 -33 -1q-57 0 -113 14q-70 18 -133 56.5t-105 94.5t-58 128q-8 34 -8 72 q0 41 9 84q10 0 55.5 -12.5t96.5 -28.5q59 -18 131 -39q0 -68 31.5 -101.5t71.5 -41.5q12 -2 23 -2q28 0 55 14q38 18 50 57q2 7 2 13q1 26 -31 54q-40 34 -101.5 63.5t-126 55t-103.5 44.5q-117 57 -173 173q-35 72 -35 172q0 60 13 130z" />
<glyph unicode="T" horiz-adv-x="946" d="M0 973l27 432l919 27l-26 -459h-273v-973h-401l80 999z" />
<glyph unicode="U" horiz-adv-x="1056" d="M7 828q-6 80 -5.5 159t5.5 159q11 159 38 292l375 -107q-6 -27 -21.5 -107.5t-27 -187t-12.5 -224.5v-11q1 -111 19 -204q20 -97 65.5 -160.5t131.5 -63.5q53 0 82 58q29 59 39 151q5 49 5 103q-1 49 -5 103q-8 114 -25.5 227t-43 211.5t-52.5 157.5q84 8 164 17 q68 8 140.5 17t124.5 20q12 -106 28.5 -254t21.5 -308q1 -39 2 -77q0 -120 -12 -240q-16 -158 -65 -281.5t-139 -200.5t-238 -77q-152 0 -260.5 69.5t-179 184.5t-107.5 264.5t-48 309.5z" />
<glyph unicode="V" horiz-adv-x="1171" d="M0 1378l418 52l180 -623l209 623l364 -105l-573 -1325z" />
<glyph unicode="W" horiz-adv-x="1251" d="M0 1440l479 -27l-26 -588l184 402l160 -402v588l454 27l-106 -1440l-295 27l-213 534l-238 -561h-293z" />
<glyph unicode="X" horiz-adv-x="1325" d="M0 1221l477 186l182 -399l242 424l424 -187l-453 -686l187 -453l-318 -106l-133 186l-104 -186l-348 131l241 428z" />
<glyph unicode="Y" horiz-adv-x="1175" d="M0 1206l350 201l277 -373l198 398l351 -150l-775 -1276l-325 250l350 502z" />
<glyph unicode="Z" horiz-adv-x="1595" d="M0 -6l524 678l-82 184l213 -27l131 187h-213l-471 -422l209 838h1284l-628 -760l77 -154h-182l-131 -158h158l575 525l-288 -891h-1176z" />
<glyph unicode="a" horiz-adv-x="735" d="M0 25l182 1218l324 -22l229 -1219h-321l-23 344l-69 -24v-320zM322 600h69l-47 184z" />
<glyph unicode="b" horiz-adv-x="718" d="M0 729l20 449q132 50 251 50h5q121 -1 214.5 -39t152.5 -108.5t71 -160.5q3 -21 3 -43q0 -69 -30 -147q-40 -102 -146 -202q77 -50 109 -128q27 -65 27 -132q0 -12 -1 -24q-6 -78 -52 -143.5t-130 -92.5q-34 -8 -98 -9h-43q-42 0 -85 1q-74 2 -157 8l-43 697zM291 705 q27 8 39 38.5t12 66.5t-12.5 70.5t-38.5 51.5v-227zM313 348l23 -158q18 8 29.5 28t11.5 43.5t-15.5 47t-48.5 39.5z" />
<glyph unicode="c" horiz-adv-x="997" d="M0 631q0 127 40 238.5t110.5 194.5t165 130t204.5 47q76 0 147.5 -24.5t134 -69.5t112 -106.5t83.5 -137.5l-315 -92q-18 53 -63.5 72.5t-98.5 19.5q-33 0 -65.5 -16.5t-58 -46t-42 -71.5t-16.5 -91q0 -45 16.5 -86t42 -73t58 -51t65.5 -19t68 14t69 31l340 -136 q-35 -78 -84 -143t-111.5 -114.5t-134 -77t-147.5 -27.5q-111 0 -205 51t-164.5 138t-110.5 203t-40 243z" />
<glyph unicode="d" horiz-adv-x="530" d="M0 1233q152 -6 264.5 -86t178 -201t81.5 -265q5 -42 5 -83q0 -100 -28 -196q-40 -136 -141.5 -246.5t-269.5 -159.5v698l-67 21zM248 444q43 10 66.5 43t25.5 71v6q0 34 -20 65q-22 33 -72 43v-228z" />
<glyph unicode="e" horiz-adv-x="681" d="M0 799l92 407l590 45l-45 -589l-250 43v-136l135 23l-22 -135l-113 -47l-25 -88l228 65l-23 -293l-544 -92l45 750z" />
<glyph unicode="f" horiz-adv-x="684" d="M0 797l92 434l592 22l-43 -546h-254l23 -93l137 48v-230l-137 -47l24 -365l-389 -22l23 754z" />
<glyph unicode="g" horiz-adv-x="1032" d="M0 627q0 125 40 235.5t108.5 192.5t163 129t202.5 47q154 0 280 -91t193 -245l-313 -88q-16 51 -58.5 69.5t-76.5 18.5q-84 0 -143.5 -60.5t-59.5 -162.5q0 -43 16.5 -83t44 -72t64.5 -51.5t78 -19.5q35 0 76.5 29t58.5 64l-225 20v225h247h312q18 -51 21 -86.5t3 -70.5 v-113q-16 -109 -64 -203t-118 -163.5t-157 -108.5t-179 -39q-109 0 -203 50t-162.5 136t-108.5 200t-40 241z" />
<glyph unicode="h" horiz-adv-x="806" d="M0 1229l401 -64l-20 -583l111 22l-23 625h315l23 -1209l-248 -20l-45 289l-113 -21l-20 -248h-338z" />
<glyph unicode="i" horiz-adv-x="405" d="M0 1245l406 25l-70 -1268h-287z" />
<glyph unicode="j" horiz-adv-x="872" d="M10 444q-10 51 -10 104q0 59 12 120l316 -93q-8 -33 -10 -82q-1 -7 -1 -13q0 -42 13 -79q16 -43 53 -67q21 -13 53 -13q23 0 51 7q47 10 69 65.5t26 134.5q1 22 1 46q0 61 -7 130q-11 97 -26 192t-33 180.5l-30 142.5q66 4 129 10q53 4 114 8t104 4q16 -121 30 -265 q9 -98 9 -196q0 -47 -3 -94q-6 -145 -40.5 -280.5t-110.5 -237.5q-86 -102 -178 -137q-61 -23 -120 -23q-30 0 -59 6q-86 17 -160.5 78.5t-123.5 151.5t-68 200z" />
<glyph unicode="k" horiz-adv-x="860" d="M0 1247h362l-22 -432l180 385l340 -70l-385 -610l363 -317l-271 -203l-250 295v-272l-272 -23z" />
<glyph unicode="l" horiz-adv-x="602" d="M0 0l23 1227h356l-68 -783l291 68l-45 -446z" />
<glyph unicode="m" horiz-adv-x="1067" d="M0 -4l92 1200l250 23l178 -476l205 453l250 23l92 -1223l-408 22l25 342l-139 -297l-158 297v-342z" />
<glyph unicode="n" horiz-adv-x="782" d="M0 -2l92 1243h254l137 -344v344h277l22 -1243h-276l-92 186v-186h-414z" />
<glyph unicode="o" horiz-adv-x="516" d="M-143 635q0 82 33.5 152.5t90 123t132 82t159.5 29.5q82 0 153 -29.5t123 -82t81.5 -123t29.5 -152.5q0 -84 -29.5 -160t-81.5 -132t-123 -90t-153 -34q-84 0 -159.5 34t-132 90t-90 132t-33.5 160zM104 690l113 -84l-57 -139l112 84l111 -84l-27 139l80 84h-108l-56 109 l-28 -109h-140z" />
<glyph unicode="p" horiz-adv-x="641" d="M0 713l23 438q118 44 225 44q13 0 26 -1q117 -6 202 -56.5t130 -136.5q35 -67 35 -146q0 -23 -3 -47q-13 -106 -91 -226.5t-238 -241.5l45 -334h-243l-45 684zM287 690q25 8 38 38t13 64.5t-13.5 68.5t-37.5 50v-221z" />
<glyph unicode="q" horiz-adv-x="1081" d="M0 612q0 127 40 238t109.5 193.5t164 130t204.5 47.5q111 0 206 -47.5t163.5 -130t108.5 -193.5t40 -238q0 -68 -5 -135t-38 -135l88 -90l-180 -248l-88 88q-53 -49 -131 -68.5t-164 -19.5q-111 0 -205 47t-163.5 129t-109.5 193.5t-40 238.5zM338 657q0 -43 15.5 -82.5 t43 -71.5t64.5 -51.5t80 -19.5q35 0 67.5 19.5t57 51.5t40 71.5t15.5 82.5q0 102 -55.5 164t-124.5 62q-86 0 -144.5 -62t-58.5 -164z" />
<glyph unicode="r" horiz-adv-x="696" d="M0 760v424q118 43 223 43h9q110 -2 193 -42t135 -112t60 -164l2 -32q0 -77 -34 -167q-41 -108 -142 -221l250 -313l-225 -180l-201 360l23 -336h-268l20 717zM270 692q25 0 40.5 24.5t18.5 58.5q1 6 1 12q0 28 -12 56q-14 34 -48 50v-201z" />
<glyph unicode="s" horiz-adv-x="759" d="M10 858q16 82 39 142.5t57.5 103.5t89 71t136.5 46q27 3 53 3q84 0 154 -34q92 -45 147 -131q54 -86 68 -206q3 -30 4 -60q0 -92 -31 -191q-25 8 -72 16.5t-94 14.5q-55 8 -117 12q20 43 25 80q4 31 -9.5 58.5t-62.5 37.5q-17 2 -32 2q-36 0 -61 -13q-36 -19 -49 -51 q-8 -20 -8 -42q0 -14 3 -28q8 -38 39 -64q33 -29 84 -55.5t135 -55.5t135 -92.5t61 -135.5q2 -16 3 -33q0 -57 -28 -111q-36 -70 -128 -109q-74 -34 -154 -34q-17 0 -35 2q-100 9 -178 59q-78 48 -120 132q-26 53 -26 117q0 37 9 76q8 0 47 -11.5t82 -23.5q51 -16 113 -35 q0 -57 27 -85q28 -30 63 -36q10 -2 20 -2q25 0 47 12q32 16 41 48q2 7 2 13q-1 23 -27 45q-34 28 -86 53.5t-108.5 48t-89.5 39.5q-98 47 -147 147q-31 64 -31 152q0 50 10 108z" />
<glyph unicode="t" horiz-adv-x="800" d="M0 823l23 365l778 22l-23 -387h-231v-823h-340l67 846z" />
<glyph unicode="u" horiz-adv-x="919" d="M6 721q-5 70 -5 139q0 70 5 138q10 138 33 253l328 -92q-6 -23 -19.5 -93.5t-23.5 -163.5q-9 -94 -11 -196v-20q-1 -90 15 -167q18 -85 58 -140t116 -55q47 0 71.5 51t31.5 131q4 43 4 92q0 42 -3 88q-6 100 -21.5 198.5t-37.5 183.5t-45 138q76 6 143 15q59 6 121.5 13 t107.5 17q10 -92 24 -221q16 -129 20 -268q1 -35 1 -69q-1 -105 -11 -207q-14 -136 -56.5 -244.5t-121.5 -175t-206 -66.5q-133 0 -226 60.5t-155.5 161t-94.5 230.5t-42 269z" />
<glyph unicode="v" horiz-adv-x="1015" d="M0 1194l362 45l156 -539l182 539l316 -90l-498 -1149z" />
<glyph unicode="w" horiz-adv-x="1062" d="M0 1223l408 -23l-23 -500l156 342l135 -342v500l387 23l-90 -1223l-250 23l-182 454l-201 -477h-250z" />
<glyph unicode="x" horiz-adv-x="1136" d="M0 1047l410 159l155 -342l207 363l365 -160l-389 -588l159 -387l-272 -92l-113 160l-90 -160l-299 113l207 366z" />
<glyph unicode="y" horiz-adv-x="999" d="M0 1026l297 172l235 -317l170 338l297 -127l-657 -1086l-279 213l299 426z" />
<glyph unicode="z" horiz-adv-x="1366" d="M0 -6l449 579l-70 158l182 -22l113 159h-182l-404 -360l178 717h1100l-539 -652l68 -131h-158l-110 -135h135l491 449l-247 -762h-1006z" />
<glyph unicode="&#xa0;" />
<glyph unicode="&#x2000;" horiz-adv-x="721" />
<glyph unicode="&#x2001;" horiz-adv-x="1442" />
<glyph unicode="&#x2002;" horiz-adv-x="721" />
<glyph unicode="&#x2003;" horiz-adv-x="1442" />
<glyph unicode="&#x2004;" horiz-adv-x="480" />
<glyph unicode="&#x2005;" horiz-adv-x="360" />
<glyph unicode="&#x2006;" horiz-adv-x="240" />
<glyph unicode="&#x2007;" horiz-adv-x="240" />
<glyph unicode="&#x2008;" horiz-adv-x="180" />
<glyph unicode="&#x2009;" horiz-adv-x="288" />
<glyph unicode="&#x200a;" horiz-adv-x="80" />
<glyph unicode="&#x202f;" horiz-adv-x="288" />
<glyph unicode="&#x205f;" horiz-adv-x="360" />
<glyph unicode="&#x25fc;" horiz-adv-x="1228" d="M0 0v1229h1229v-1229h-1229z" />
</font>
</defs>
</svg>
